<?xml version="1.0" encoding="UTF-8"?>
<svg id="Capa_1" data-name="Capa 1" xmlns="http://www.w3.org/2000/svg" version="1.1" viewBox="0 0 400 253.3">
  <defs>
    <style>
      .cls-1 {
        fill: #e2ebf3;
      }

      .cls-1, .cls-2, .cls-3, .cls-4, .cls-5, .cls-6 {
        stroke-width: 0px;
      }

      .cls-2 {
        fill: #024588;
      }

      .cls-3 {
        fill: #bf0000;
      }

      .cls-4 {
        fill: #fffffc;
      }

      .cls-5 {
        fill: #004685;
      }

      .cls-6 {
        fill: #fff;
      }
    </style>
  </defs>
  <rect class="cls-2" width="400" height="253.3"/>
  <g>
    <path class="cls-6" d="M96.7,234.3c0-7.4,6-13.3,13.3-13.3h180c7.4,0,13.3,6,13.3,13.3v19h22V50.5c0-7.4-6-13.3-13.3-13.3H88c-7.4,0-13.3,6-13.3,13.3v202.7h22v-19ZM96.7,67.3h192.3v9.5H96.7v-9.5ZM96.7,107.2c0-7.4,6-13.3,13.3-13.3h180c7.4,0,13.3,6,13.3,13.3v25.7c0,7.4-6,13.3-13.3,13.3H110c-7.4,0-13.3-6-13.3-13.3v-25.7ZM96.7,170.8c0-7.4,6-13.3,13.3-13.3h180c7.4,0,13.3,6,13.3,13.3v25.7c0,7.4-6,13.3-13.3,13.3H110c-7.4,0-13.3-6-13.3-13.3v-25.7Z"/>
    <rect class="cls-1" x="96.7" y="93.9" width="206.7" height="52.3" rx="13.3" ry="13.3"/>
    <rect class="cls-1" x="96.7" y="157.4" width="206.7" height="52.3" rx="13.3" ry="13.3"/>
    <path class="cls-1" d="M290,221H110c-7.4,0-13.3,6-13.3,13.3v19h206.7v-19c0-7.4-6-13.3-13.3-13.3Z"/>
    <rect class="cls-5" x="96.7" y="67.3" width="192.3" height="9.5"/>
  </g>
  <g>
    <circle class="cls-3" cx="200" cy="126.7" r="68"/>
    <path class="cls-4" d="M168.3,110.8c0,1.6-1.3,2.9-2.9,2.9s-2.9-1.3-2.9-2.9c0-7.3,3.5-14.8,9-19,1.3-1,3-.7,4,.5.9,1.3.7,3-.5,4-4.1,3.1-6.8,9-6.8,14.5h0ZM237.3,138.9c.3,1.5-.8,3-2.3,3.3l-17.9,3.1s0,0,0,.1c.7,3.8-.2,7.5-2.4,10.7-2.2,3.1-5.4,5.2-9.2,5.9-.8.1-1.7.2-2.5.2-6.8,0-12.8-4.9-14-11.8h0c0-.1-13.8,2.3-13.8,2.3-.2,0-.3,0-.5,0-1.4,0-2.6-1-2.8-2.4-.3-1.5.8-3,2.3-3.3l3.2-.6s0-.2,0-.3l-.2-1.1c-.4-2.5-.9-5.9-1.5-9.5-6-34,6.2-39,20.3-41.5l1.3-.2c1.6-.3,3.1.8,3.4,2.4.2,1.6-.7,3-2.3,3.2l-1.3.2c-10.9,1.9-21.2,3.7-15.7,34.9.7,3.7,1.2,7.1,1.5,9.7l.2,1.1v.2l42.5-7.5c-.5-2.6-1.7-8.2-2.2-11.3-.3-1.9-.5-2.8-.9-4.4-.3-1.5.6-3,2.1-3.4,1.5-.3,3,.6,3.4,2.1.4,1.8.6,2.7.9,4.7.5,3.1,1.7,8.8,2.2,11.3l2.8-.5c1.5-.3,3,.8,3.3,2.3h0ZM211.6,146.4h0c0-.1-16.9,2.8-16.9,2.8,0,0,0,0,0,.1.8,4.6,5.3,7.7,9.9,6.9,2.3-.4,4.2-1.7,5.5-3.5,1.3-1.9,1.8-4.1,1.4-6.4h0s0,0,0,0ZM219.5,113.6c5.9-1.1,9.9-6.7,8.9-12.7-1.1-5.9-6.7-9.9-12.7-8.9-5.9,1.1-9.9,6.7-8.9,12.7,1.1,5.9,6.7,9.9,12.7,8.9Z"/>
  </g>
</svg>